<svg height="110" style="enable-background:new 0 0 128 128" width="128" xml:space="preserve" xmlns="http://www.w3.org/2000/svg">
    <path d="M90.249 107.596H40.916a6.508 6.508 0 0 1-6.5-6.5V30.861c0-3.584 2.916-6.5 6.5-6.5h28.726c3.152 0 7.367 1.746 9.596 3.975l13.537 13.537c2.229 2.229 3.975 6.444 3.975 9.596v49.627a6.509 6.509 0 0 1-6.501 6.5zM40.916 27.361c-1.93 0-3.5 1.57-3.5 3.5v70.235c0 1.93 1.57 3.5 3.5 3.5h49.333c1.93 0 3.5-1.57 3.5-3.5V51.469c0-2.333-1.446-5.826-3.096-7.475L77.116 30.457c-1.649-1.649-5.142-3.096-7.475-3.096H40.916z" style="fill:#313335"/>
    <path d="M90.249 47.969H79.642a6.508 6.508 0 0 1-6.5-6.5V30.861c0-3.013 1.617-4.082 3.003-4.082 1.02 0 2.06.524 3.093 1.557l13.537 13.537c1.886 1.886 1.657 3.398 1.354 4.132-.306.733-1.213 1.964-3.88 1.964zM76.284 29.827c-.062.16-.143.476-.143 1.034v10.608c0 1.93 1.57 3.5 3.5 3.5h10.607c.558 0 .874-.081 1.034-.143-.069-.157-.235-.438-.63-.832L77.116 30.457c-.394-.394-.675-.561-.832-.63z" style="fill:#313335"/>
    <path d="M95.249 36.905c-.43 0-.839-.184-1.123-.506l-10.367-11.72a1.499 1.499 0 0 1 1.123-2.494h3.714v-9.78a1.5 1.5 0 0 1 1.5-1.5H100.4a1.5 1.5 0 0 1 1.5 1.5v9.78h3.717a1.499 1.499 0 0 1 1.123 2.494l-10.367 11.72a1.5 1.5 0 0 1-1.124.506zm-7.038-11.719 7.038 7.956 7.038-7.956h-1.888a1.5 1.5 0 0 1-1.5-1.5v-9.78h-7.304v9.78a1.5 1.5 0 0 1-1.5 1.5h-1.884z" style="fill:#ee3e36"/>
    <path d="M53.815 92.034H51.24v3.929c0 .562-.132.988-.397 1.278-.265.29-.6.436-1.003.436-.423 0-.764-.144-1.022-.431-.259-.288-.389-.708-.389-1.264V85.284c0-.619.143-1.061.426-1.326.284-.265.735-.397 1.354-.397h3.606c1.066 0 1.888.082 2.462.246.567.158 1.059.42 1.472.786.414.366.728.814.942 1.344.215.53.322 1.127.322 1.79 0 1.414-.436 2.485-1.307 3.214-.87.728-2.167 1.093-3.891 1.093zm-.681-6.362H51.24v4.241h1.894c.663 0 1.217-.069 1.662-.208.444-.139.784-.366 1.018-.682.233-.315.35-.729.35-1.24 0-.612-.18-1.111-.539-1.496-.405-.41-1.235-.615-2.491-.615zM63.104 83.561h3.664c.952 0 1.771.088 2.452.265s1.3.508 1.855.994c1.445 1.237 2.168 3.118 2.168 5.642 0 .833-.073 1.594-.218 2.282a6.725 6.725 0 0 1-.673 1.86 5.76 5.76 0 0 1-1.164 1.481 4.782 4.782 0 0 1-1.222.805 5.508 5.508 0 0 1-1.425.426c-.508.082-1.08.123-1.718.123H63.16c-.511 0-.896-.077-1.155-.232s-.428-.373-.506-.653c-.079-.281-.118-.645-.118-1.093V85.284c0-.606.135-1.045.406-1.316.272-.272.71-.407 1.317-.407zm1.088 2.224v9.42h2.13c.467 0 .833-.013 1.099-.038.265-.025.539-.088.823-.189s.53-.243.738-.426c.94-.795 1.411-2.165 1.411-4.108 0-1.37-.207-2.396-.62-3.077-.414-.682-.924-1.115-1.529-1.302-.605-.186-1.338-.279-2.196-.279h-1.856zM84.007 85.729h-5.538v3.55h4.63c.429 0 .749.096.961.289.211.193.317.45.317.771 0 .322-.107.578-.322.767s-.533.284-.956.284h-4.63v4.573c0 .581-.131 1.012-.393 1.292s-.599.421-1.009.421c-.416 0-.756-.142-1.018-.426-.262-.284-.393-.713-.393-1.288V85.284c0-.404.06-.734.18-.99.12-.255.308-.441.563-.558.256-.117.582-.175.979-.175h6.627c.448 0 .781.099.999.298.218.199.327.459.327.781 0 .328-.109.592-.327.791s-.549.298-.997.298z" style="fill:#313335"/>
    <g>
        <path d="M46.426 78.998c-1.465 0-2.644-.746-3.152-1.996-.847-2.078.374-4.936 3.35-7.842 2.33-2.276 5.584-4.149 9.677-5.573 2.177-4.04 4.18-8.366 5.585-12.064-3.111-4.839-3.685-10.813-2.597-14.151.704-2.159 1.923-2.971 2.82-3.272 1.252-.421 2.53-.106 3.421.852 1.343 1.444 1.835 4.352 1.506 8.89-.131 1.809-.732 4.238-1.79 7.231l.14.172c.706.863 1.459 1.812 2.248 2.807 1.684 2.123 3.576 4.508 5.5 6.646a52.003 52.003 0 0 1 1.646-.026c6.798 0 11.363 1.422 12.854 4.004.636 1.101.649 2.34.037 3.4-.826 1.431-2.613 2.285-4.781 2.285h-.001a8.884 8.884 0 0 1-1.613-.152c-2.732-.504-5.731-2.56-9.404-6.455-.939.051-1.922.125-2.93.223-2.165.208-6.343.753-10.573 2.086-1.82 3.287-5.737 9.926-8.658 11.835-1.105.72-2.239 1.1-3.285 1.1zm7.462-11.184c-2.095 1.012-3.824 2.18-5.169 3.493-2.643 2.582-2.815 4.2-2.667 4.563.043.105.228.127.374.127.448 0 1.047-.223 1.642-.611 1.306-.853 3.462-3.684 5.82-7.572zm22.165-4.123c2.264 2.099 4.164 3.272 5.766 3.568.366.067.726.102 1.068.102h.001c1.188 0 1.965-.407 2.184-.785.04-.071.097-.167-.038-.4-.504-.871-2.96-2.306-8.981-2.485zm-12.044-9.375a109.908 109.908 0 0 1-3.708 8.093 59.333 59.333 0 0 1 8.352-1.418c.234-.022.467-.044.698-.064-1.431-1.686-2.807-3.42-4.068-5.01-.436-.55-.862-1.086-1.274-1.601zm-.8-17.4a.48.48 0 0 0-.146.029c-.338.113-.683.621-.923 1.359-.72 2.208-.434 5.923 1.065 9.346.477-1.622.762-2.985.837-4.023.366-5.049-.451-6.352-.711-6.63-.073-.081-.1-.081-.122-.081z" style="fill:#ee3e36"/>
    </g>
    <path style="fill:none" d="M.5.5h128v128H.5z"/>
</svg>
