<svg xmlns="http://www.w3.org/2000/svg" width="20" height="20">
    <path fill-rule="evenodd" opacity=".451" fill="#1D3557" d="m19.16 7.48-2.03 1.58c.05.3.07.62.07.94 0 .33-.02.64-.06.94l2.01 1.58c.19.14.24.39.12.61l-1.92 3.32c-.12.22-.37.3-.59.22l-2.39-.96c-.49.38-1.03.7-1.62.94l-.36 2.54c-.03.24-.23.41-.47.41H8.08c-.24 0-.43-.17-.48-.41l-.36-2.54c-.59-.24-1.12-.56-1.62-.94l-2.39.96c-.22.07-.47 0-.59-.22L.72 13.13a.49.49 0 0 1 .12-.61l2.03-1.58c-.05-.3-.07-.63-.07-.94 0-.31.04-.64.09-.94L.86 7.48c-.2-.14-.24-.4-.12-.61l1.91-3.32c.12-.22.37-.3.59-.22l2.39.96c.49-.37 1.03-.7 1.62-.94L7.61.81c.04-.24.23-.41.47-.41h3.84c.24 0 .44.17.48.41l.36 2.54c.59.24 1.12.56 1.62.94l2.39-.96c.22-.07.47 0 .59.22l1.92 3.32c.11.2.06.47-.12.61zM10 6.4A3.61 3.61 0 0 0 6.4 10c0 1.98 1.62 3.6 3.6 3.6s3.6-1.62 3.6-3.6-1.62-3.6-3.6-3.6z"/>
</svg>
